<svg xmlns="http://www.w3.org/2000/svg" width="642" height="505" fill="none" viewBox="0 0 642 505"><g clip-path="url(#a)"><rect width="407" height="219" x="235" fill="#0d1117" rx="15"/><rect width="326.866" height="146.726" x="260.241" y="84.44" fill="#0d1117" stroke="#30363d" stroke-width=".363" rx="3.45"/><path fill="#161b22" d="M260.423 88.254a3.63 3.63 0 0 1 3.632-3.632h319.239a3.63 3.63 0 0 1 3.631 3.632v10.532H260.423z"/><rect width="30.871" height="11.259" x="555.147" y="67.371" fill="#1f6feb" stroke="#6c96f2" stroke-width=".363" rx="1.998"/><rect width="31.597" height="11.259" x="515.56" y="67.371" fill="#21262d" stroke="#475569" stroke-width=".363" rx="1.998"/><rect width="30.871" height="11.259" x="476.699" y="67.371" fill="#21262d" stroke="#475569" stroke-width=".363" rx="1.998"/><rect width="30.871" height="11.259" x="260.604" y="67.371" fill="#21262d" stroke="#475569" stroke-width=".363" rx="1.998"/><path fill="#4da1f4" d="M265.4 38.605q-1.583 0-2.44-.594-.858-.586-.857-1.648 0-.755.476-1.29.483-.534 1.333-.71a1.47 1.47 0 0 1-.542-.44 1.1 1.1 0 0 1-.22-.674q0-.44.242-.77.25-.337.755-.644a2.2 2.2 0 0 1-1.026-.865q-.388-.615-.388-1.429 0-.864.359-1.472.359-.615 1.04-.938t1.649-.323q.212 0 .425.023.219.015.417.05.198.03.345.074h2.755v.784l-1.48.183a2.58 2.58 0 0 1 .512 1.583q0 1.2-.813 1.912-.813.704-2.235.703-.337 0-.688-.058-.36.197-.55.44a.9.9 0 0 0-.183.556q0 .235.139.374a.9.9 0 0 0 .418.205q.271.06.652.059h1.414q1.312 0 2.008.55.703.549.703 1.604 0 1.333-1.084 2.044-1.085.71-3.136.71m.036-.953q.997 0 1.649-.205.66-.198.982-.579.33-.373.329-.894 0-.483-.219-.732-.22-.242-.645-.323a5.2 5.2 0 0 0-1.041-.087h-1.392a2.4 2.4 0 0 0-.945.168 1.36 1.36 0 0 0-.623.498q-.212.33-.212.82 0 .653.549.99.55.344 1.568.344m.315-6.418q.873 0 1.312-.44t.44-1.282q0-.9-.447-1.348-.447-.454-1.319-.454-.836 0-1.29.469-.447.461-.447 1.355 0 .82.455 1.26.454.44 1.296.44m6.395-4.264V35h-1.216v-8.03zm-.593-3.004q.3 0 .513.197.22.192.22.601 0 .404-.22.601a.73.73 0 0 1-.513.198.75.75 0 0 1-.528-.198q-.204-.198-.205-.6 0-.41.205-.602a.75.75 0 0 1 .528-.197m5.391 10.184q.3 0 .616-.051.315-.051.512-.125v.945a2.6 2.6 0 0 1-.593.162 4 4 0 0 1-.733.066q-.638 0-1.157-.22a1.8 1.8 0 0 1-.836-.762q-.307-.535-.307-1.48v-4.763h-1.143v-.593l1.15-.477.483-1.743h.733v1.86h2.352v.953h-2.352v4.726q0 .755.345 1.128.351.375.93.374m3.596-10.55v3.406q0 .293-.015.594a5 5 0 0 1-.051.542h.081q.249-.425.63-.71.389-.294.879-.44a3.5 3.5 0 0 1 1.041-.154q.967 0 1.611.307.652.308.975.953.33.645.33 1.67V35h-1.202v-5.15q0-1.004-.462-1.503-.454-.498-1.399-.498-.894 0-1.429.344-.527.337-.762.997-.227.66-.227 1.612V35h-1.216V23.6zm14.242 3.37V35h-.996l-.176-1.128h-.066a2.3 2.3 0 0 1-.645.703q-.396.285-.894.425a3.6 3.6 0 0 1-1.047.147q-.953 0-1.598-.308a2.07 2.07 0 0 1-.974-.953q-.323-.645-.323-1.656v-5.26h1.231v5.172q0 1.005.455 1.502.454.492 1.384.491.894 0 1.422-.337.534-.336.769-.989.235-.66.235-1.612V26.97zm3.413-3.37v2.85q0 .49-.029.952l-.037.718h.066q.33-.542.953-.916.622-.373 1.59-.373 1.509 0 2.403 1.047.901 1.04.901 3.1 0 1.355-.41 2.285-.411.93-1.158 1.407t-1.766.477q-.952 0-1.568-.352a2.75 2.75 0 0 1-.938-.872h-.095L297.858 35h-.879V23.6zm2.345 4.249q-.873 0-1.385.344-.513.337-.74 1.026-.22.68-.22 1.73v.065q0 1.517.506 2.323.505.798 1.839.798 1.12 0 1.678-.82.564-.82.564-2.345 0-1.553-.557-2.337-.55-.784-1.685-.784m26.122 1.692q0 1.81-.66 3.027a4.26 4.26 0 0 1-1.912 1.824q-1.245.608-3.026.608h-2.909V24.288h3.231q1.634 0 2.814.6a4.15 4.15 0 0 1 1.817 1.767q.645 1.164.645 2.886m-1.312.044q0-1.444-.483-2.38a3.04 3.04 0 0 0-1.407-1.393q-.923-.462-2.264-.462h-1.795v8.58h1.516q2.214 0 3.319-1.091 1.114-1.092 1.114-3.254m4.351-2.615V35h-1.216v-8.03zm-.594-3.004q.302 0 .513.197.22.192.22.601 0 .404-.22.601a.72.72 0 0 1-.513.198.74.74 0 0 1-.527-.198q-.205-.198-.205-.6 0-.41.205-.602a.74.74 0 0 1 .527-.197m4.014-.367v3.407q0 .293-.015.594a5 5 0 0 1-.051.542h.081q.249-.425.63-.71.389-.294.879-.44a3.5 3.5 0 0 1 1.041-.154q.967 0 1.611.307.653.308.975.953.33.645.33 1.67V35H337.4v-5.15q0-1.004-.462-1.503-.454-.498-1.399-.498-.894 0-1.429.344-.527.337-.762.997-.227.66-.227 1.612V35h-1.216V23.6zm6.344 3.37h1.304l1.773 4.66q.154.411.286.792.132.373.234.718t.162.667h.051q.102-.366.293-.96.19-.6.41-1.224l1.678-4.652h1.312l-3.495 9.21a6.1 6.1 0 0 1-.652 1.29 2.6 2.6 0 0 1-.894.842q-.528.3-1.275.3-.345 0-.608-.044a4 4 0 0 1-.455-.088v-.974a4.3 4.3 0 0 0 .872.095q.454 0 .784-.176a1.6 1.6 0 0 0 .579-.498q.241-.33.418-.784l.439-1.128zm11.267 8.178q-1.524 0-2.418-1.04-.886-1.041-.886-3.093 0-2.073.908-3.128.909-1.063 2.418-1.063.637 0 1.114.169.476.168.82.454.345.278.579.637h.088a12 12 0 0 1-.058-.622 9 9 0 0 1-.03-.645v-3.217h1.217V35h-.982l-.183-1.143h-.052q-.227.36-.579.652a2.7 2.7 0 0 1-.827.469 3.4 3.4 0 0 1-1.129.169m.191-1.012q1.288 0 1.824-.732.535-.733.535-2.176v-.22q0-1.531-.513-2.352-.505-.82-1.846-.82-1.122 0-1.678.864-.557.857-.557 2.345 0 1.479.549 2.286.557.805 1.686.805m9.413-7.312q.242 0 .506.03.264.021.469.065l-.154 1.129a3.783 3.783 0 0 0-.894-.11q-.483 0-.916.198a2.2 2.2 0 0 0-.747.556 2.6 2.6 0 0 0-.506.872 3.3 3.3 0 0 0-.183 1.129V35h-1.224v-8.03h1.012l.131 1.48h.052q.249-.447.601-.814.351-.374.813-.593.468-.22 1.04-.22m9.04 4.147q0 .99-.256 1.766a3.6 3.6 0 0 1-.74 1.312q-.484.534-1.173.82-.681.279-1.545.279a3.85 3.85 0 0 1-1.481-.279 3.3 3.3 0 0 1-1.157-.82 3.8 3.8 0 0 1-.755-1.312q-.264-.776-.264-1.766 0-1.318.447-2.242.447-.93 1.275-1.414.836-.49 1.986-.49 1.098 0 1.919.49.828.49 1.283 1.421.46.923.461 2.235m-6.11 0q0 .967.256 1.678.257.71.791 1.1.535.387 1.378.387.835 0 1.37-.388.542-.388.799-1.099.256-.71.256-1.678 0-.96-.256-1.656-.256-.703-.792-1.084-.534-.381-1.385-.381-1.252 0-1.839.828-.578.828-.578 2.293m10.08 7.635q-1.582 0-2.44-.594-.857-.586-.857-1.648 0-.755.476-1.29.484-.534 1.334-.71a1.5 1.5 0 0 1-.543-.44 1.1 1.1 0 0 1-.219-.674q0-.44.241-.77.25-.337.755-.644a2.2 2.2 0 0 1-1.026-.865q-.388-.615-.388-1.429 0-.864.359-1.472.359-.615 1.04-.938.682-.323 1.649-.323.212 0 .425.023.22.015.418.05.197.03.344.074h2.755v.784l-1.48.183q.22.285.366.689.147.403.147.894 0 1.2-.814 1.912-.813.704-2.234.703a4 4 0 0 1-.689-.058 1.8 1.8 0 0 0-.55.44.9.9 0 0 0-.183.556q0 .235.14.374a.9.9 0 0 0 .417.205q.271.06.652.059h1.414q1.312 0 2.008.55.703.549.703 1.604 0 1.333-1.084 2.044-1.084.71-3.136.71m.037-.953q.996 0 1.648-.205.66-.198.982-.579.33-.373.33-.894 0-.483-.22-.732-.22-.242-.645-.323a5.2 5.2 0 0 0-1.04-.087h-1.392q-.543 0-.946.168a1.35 1.35 0 0 0-.622.498q-.213.33-.213.82 0 .653.55.99.55.344 1.568.344m.315-6.418q.871 0 1.311-.44t.44-1.282q0-.9-.447-1.348-.447-.454-1.319-.454-.836 0-1.289.469-.447.461-.447 1.355 0 .82.454 1.26t1.297.44m8.27-4.41q1.026 0 1.759.453.732.455 1.121 1.275.388.814.388 1.905v.755h-5.546q.022 1.414.703 2.154t1.92.74q.762 0 1.348-.14.586-.138 1.216-.41v1.07q-.607.272-1.209.396a7 7 0 0 1-1.407.125q-1.156 0-2.022-.47a3.28 3.28 0 0 1-1.333-1.392q-.477-.915-.477-2.241 0-1.298.433-2.243.44-.952 1.231-1.465.798-.513 1.875-.513m-.014.996q-.975 0-1.554.637t-.688 1.78h4.249q-.007-.717-.227-1.26a1.77 1.77 0 0 0-.652-.85q-.44-.307-1.128-.307m8.776-.997q1.428 0 2.161.703.733.697.733 2.243V35h-1.202v-5.15q0-1.004-.461-1.503-.455-.498-1.4-.498-1.334 0-1.875.755-.543.755-.543 2.19V35h-1.216v-8.03h.982l.183 1.157h.066q.256-.425.652-.71a2.9 2.9 0 0 1 .887-.44 3.4 3.4 0 0 1 1.033-.154M404.172 35l-3.598-9.481h-.058q.028.3.051.733a42 42 0 0 1 .051 1.978V35h-1.157V24.288h1.846l3.392 8.91h.052l3.443-8.91h1.832V35h-1.231v-6.858q0-.476.015-.953a50 50 0 0 1 .08-1.655h-.058L405.19 35zm15.151-4.03q0 .99-.257 1.766a3.6 3.6 0 0 1-.74 1.312q-.483.534-1.172.82-.682.279-1.546.279a3.8 3.8 0 0 1-1.48-.279 3.3 3.3 0 0 1-1.158-.82 3.8 3.8 0 0 1-.755-1.312q-.263-.776-.263-1.766 0-1.318.447-2.242.446-.93 1.274-1.414.836-.49 1.986-.49 1.1 0 1.92.49.828.49 1.282 1.421.462.923.462 2.235m-6.111 0q0 .967.256 1.678.256.71.792 1.1.534.387 1.377.387.836 0 1.37-.388.543-.388.799-1.099.256-.71.256-1.678 0-.96-.256-1.656-.257-.703-.791-1.084-.536-.381-1.385-.381-1.254 0-1.839.828-.579.828-.579 2.293m11.641-4.147q1.428 0 2.161.703.733.697.733 2.243V35h-1.202v-5.15q0-1.004-.461-1.503-.455-.498-1.4-.498-1.334 0-1.875.755-.543.755-.543 2.19V35h-1.216v-8.03h.982l.183 1.157h.066q.256-.425.652-.71a2.9 2.9 0 0 1 .887-.44 3.4 3.4 0 0 1 1.033-.154m11.949 4.147q0 .99-.257 1.766a3.6 3.6 0 0 1-.74 1.312q-.483.534-1.172.82-.682.279-1.546.279a3.8 3.8 0 0 1-1.48-.279 3.3 3.3 0 0 1-1.158-.82 3.8 3.8 0 0 1-.754-1.312q-.264-.776-.264-1.766 0-1.318.447-2.242.447-.93 1.275-1.414.834-.49 1.985-.49 1.1 0 1.92.49.828.49 1.282 1.421.462.923.462 2.235m-6.111 0q0 .967.256 1.678.256.71.792 1.1.534.387 1.377.387.836 0 1.37-.388.543-.388.799-1.099.256-.71.256-1.678 0-.96-.256-1.656-.257-.703-.791-1.084-.536-.381-1.385-.381-1.252 0-1.839.828-.579.828-.579 2.293m9.751-.08-2.777-3.92h1.392l2.117 3.092 2.111-3.092h1.377l-2.777 3.92 2.931 4.11h-1.392l-2.25-3.275L438.91 35h-1.377zm6.783-3.92V35h-1.216v-8.03zm-.594-3.004q.302 0 .513.197.22.192.22.601 0 .404-.22.601a.72.72 0 0 1-.513.198.74.74 0 0 1-.527-.198q-.205-.198-.205-.6 0-.41.205-.602a.74.74 0 0 1 .527-.197m5.655 11.18q-1.524 0-2.417-1.04-.887-1.04-.887-3.092 0-2.073.908-3.128.909-1.063 2.418-1.063.638 0 1.114.169.476.168.821.454.344.278.579.637h.087a12 12 0 0 1-.058-.622 9 9 0 0 1-.029-.645v-3.217h1.216V35h-.982l-.183-1.143h-.051q-.228.36-.579.652a2.7 2.7 0 0 1-.828.469 3.4 3.4 0 0 1-1.129.169m.191-1.01q1.29 0 1.824-.733.535-.733.535-2.176v-.22q0-1.531-.513-2.352-.505-.82-1.846-.82-1.121 0-1.678.864-.557.857-.557 2.345 0 1.479.55 2.286.557.805 1.685.805m8.857-7.313q1.026 0 1.758.454.733.455 1.121 1.275.389.814.389 1.905v.755h-5.547q.022 1.414.703 2.154.682.74 1.92.74.762 0 1.348-.14.586-.138 1.216-.41v1.07q-.608.272-1.208.396a7 7 0 0 1-1.407.125q-1.158 0-2.022-.47a3.3 3.3 0 0 1-1.334-1.392q-.476-.915-.476-2.241 0-1.298.432-2.243.44-.952 1.231-1.465.798-.513 1.876-.513m-.015.997q-.974 0-1.553.637-.58.637-.689 1.78h4.25q-.008-.717-.228-1.26a1.77 1.77 0 0 0-.652-.85q-.44-.307-1.128-.307"/><path fill="#94a3b8" d="M313.374 24.288 309.388 35h-1.202l3.993-10.712z"/><path fill="#b3b3b3" d="M264.305 43.594q1.12 0 1.635.44.519.435.519 1.25 0 .37-.123.701-.118.33-.388.583a1.9 1.9 0 0 1-.709.396q-.435.142-1.069.142h-.705v2.277h-.673v-5.79zm-.064.574h-.776v2.36h.63q.554 0 .922-.119a1.04 1.04 0 0 0 .559-.384q.186-.27.186-.713 0-.578-.368-.86-.369-.285-1.153-.284m6.712.875v4.34h-.539l-.095-.61h-.036q-.133.225-.348.38t-.483.23q-.266.08-.566.08-.515 0-.864-.167a1.1 1.1 0 0 1-.526-.515q-.175-.348-.175-.895v-2.843h.666v2.796q0 .542.245.812.246.264.749.265.483 0 .768-.182.289-.183.416-.535.126-.357.126-.871v-2.285zm3.159-.08q.13 0 .273.017.143.012.254.035l-.084.61a2.038 2.038 0 0 0-.483-.06 1.18 1.18 0 0 0-.899.408q-.174.195-.273.472a1.8 1.8 0 0 0-.099.61v2.328h-.661v-4.34h.546l.072.8h.027q.135-.242.325-.44a1.5 1.5 0 0 1 .44-.32q.253-.12.562-.12m1.801.08v4.34h-.657v-4.34zm-.321-1.624q.163 0 .277.107.12.103.119.325 0 .217-.119.325a.4.4 0 0 1-.277.107.4.4 0 0 1-.285-.107q-.111-.108-.111-.325 0-.222.111-.325a.4.4 0 0 1 .285-.107m2.914 5.505a2 2 0 0 0 .61-.095v.51a1.4 1.4 0 0 1-.321.088 2.3 2.3 0 0 1-.396.035q-.345 0-.626-.119a.97.97 0 0 1-.451-.411q-.166-.29-.166-.8v-2.574h-.618v-.321l.622-.257.261-.943h.396v1.006h1.271v.515h-1.271v2.554q0 .408.186.61a.66.66 0 0 0 .503.202m.601-3.881h.705l.958 2.519q.084.221.155.427.07.202.126.388t.087.36h.028q.055-.197.159-.518.102-.325.221-.662l.907-2.514h.709l-1.889 4.978q-.15.4-.352.697-.198.297-.483.455-.286.162-.689.162a2 2 0 0 1-.329-.023 2 2 0 0 1-.246-.048v-.527a2.3 2.3 0 0 0 .472.052.9.9 0 0 0 .423-.095.86.86 0 0 0 .313-.27 1.9 1.9 0 0 0 .226-.423l.237-.61zm7.107 0v4.34h-.658v-4.34zm-.321-1.624q.162 0 .277.107.119.103.119.325 0 .217-.119.325a.4.4 0 0 1-.277.107.4.4 0 0 1-.285-.107q-.111-.108-.111-.325 0-.222.111-.325a.4.4 0 0 1 .285-.107m3.567 1.545q.772 0 1.168.38.396.376.396 1.212v2.827h-.649V46.6q0-.542-.25-.812-.245-.27-.756-.269-.721 0-1.014.408t-.293 1.184v2.273h-.657v-4.34h.53l.099.626h.036q.138-.23.352-.384.214-.159.48-.238.265-.083.558-.083m7.194-.86q-.48 0-.864.167-.38.162-.649.475a2.2 2.2 0 0 0-.408.748 3.2 3.2 0 0 0-.143.99q0 .729.226 1.268.23.534.681.827.456.294 1.137.293.388 0 .728-.063.345-.067.67-.166v.586q-.317.118-.666.174a5 5 0 0 1-.827.06q-.883 0-1.477-.365a2.28 2.28 0 0 1-.887-1.038q-.294-.668-.293-1.58 0-.657.182-1.2.186-.546.538-.942.356-.396.872-.61a3 3 0 0 1 1.188-.218q.44 0 .847.088.407.086.737.249l-.27.57a4 4 0 0 0-.61-.218 2.6 2.6 0 0 0-.712-.095m6.073 3.101q0 .535-.138.954-.14.42-.4.71-.262.288-.634.443-.368.15-.835.15-.436 0-.8-.15a1.8 1.8 0 0 1-.626-.444 2.1 2.1 0 0 1-.408-.709 3 3 0 0 1-.142-.954q0-.712.241-1.212.242-.503.689-.764.452-.265 1.073-.265.594 0 1.038.265.447.265.693.768.249.5.249 1.208m-3.302 0q0 .522.138.907.139.384.428.594.29.21.745.21.451 0 .74-.21a1.2 1.2 0 0 0 .432-.594q.138-.384.138-.907 0-.519-.138-.895a1.2 1.2 0 0 0-.428-.586q-.29-.206-.748-.206-.678 0-.994.448-.313.447-.313 1.24m5.781 2.257q-.825 0-1.307-.562-.48-.562-.479-1.671 0-1.12.491-1.691.491-.574 1.306-.574.345 0 .602.09.258.091.444.246.186.15.313.345h.047a7 7 0 0 1-.047-.685V43.22h.657v6.162h-.531l-.099-.618h-.027a1.5 1.5 0 0 1-.761.606q-.257.09-.609.091m.103-.546q.696 0 .986-.396.288-.396.289-1.176v-.12q0-.826-.278-1.27-.273-.444-.997-.444-.606 0-.907.468-.301.462-.301 1.267 0 .8.297 1.235.3.436.911.436m4.786-3.952q.555 0 .951.245.396.246.606.69.209.439.209 1.029v.408h-2.997q.012.764.38 1.164t1.037.4q.412 0 .729-.075t.657-.222v.578a3.2 3.2 0 0 1-.653.214 3.7 3.7 0 0 1-.76.067q-.626 0-1.093-.253a1.78 1.78 0 0 1-.721-.753q-.258-.495-.257-1.211 0-.701.233-1.212.238-.515.666-.792a1.83 1.83 0 0 1 1.013-.277m-.008.538q-.527 0-.839.345-.314.344-.372.962h2.296a1.9 1.9 0 0 0-.122-.681.96.96 0 0 0-.353-.46q-.237-.166-.61-.166"/></g><rect width="406" height="218" x="235.5" y=".5" stroke="#475569" rx="14.5"/><g filter="url(#b)"><path fill="#7c3aed" d="m8 76 42 18.025L30.123 99l-4.829 17z"/><path stroke="#fff" d="m48.44 93.9-18.439 4.615-.28.07-.08.278-4.445 15.652-16.239-37.56z"/></g><g filter="url(#c)"><rect width="285" height="204" x="39" y="109" fill="#0f172a" rx="20"/><rect width="284" height="203" x="39.5" y="109.5" stroke="#0f2f76" rx="19.5"/><path fill="#949494" d="M75.495 163v-16.292h-5.818v-2.653h14.56v2.653h-5.819V163zm14.296.379q-2.03 0-3.546-.839a6.23 6.23 0 0 1-2.381-2.409q-.84-1.57-.84-3.626v-.325q0-2.084.84-3.627.839-1.57 2.327-2.408 1.515-.867 3.491-.866 1.922 0 3.356.866a5.83 5.83 0 0 1 2.274 2.354q.811 1.516.812 3.546v1.055H85.866q.054 1.76 1.164 2.815 1.137 1.028 2.815 1.028 1.57 0 2.354-.703a4.9 4.9 0 0 0 1.245-1.624l2.3 1.19q-.378.759-1.109 1.597-.705.84-1.867 1.408-1.165.567-2.977.568m-3.898-8.417h7.389q-.108-1.515-1.083-2.354-.974-.866-2.544-.866t-2.57.866q-.975.839-1.192 2.354M105 163.379q-1.922 0-3.491-.812a6.17 6.17 0 0 1-2.463-2.355q-.894-1.542-.893-3.707v-.352q0-2.165.893-3.681a6.17 6.17 0 0 1 2.463-2.354q1.57-.84 3.491-.839 1.922 0 3.275.703 1.352.704 2.165 1.868a6.1 6.1 0 0 1 1.082 2.571l-2.706.568a4.5 4.5 0 0 0-.568-1.624 3.15 3.15 0 0 0-1.218-1.163q-.785-.433-1.976-.433-1.163 0-2.111.541-.92.514-1.461 1.515-.542.975-.542 2.382v.244q0 1.407.542 2.408.542 1.002 1.461 1.516.948.514 2.111.514 1.76 0 2.679-.893.921-.92 1.164-2.328l2.706.623a7.1 7.1 0 0 1-1.163 2.544q-.813 1.164-2.165 1.867-1.353.677-3.275.677m9.142-.379v-18.945h2.788v7.497h.433q.27-.515.757-1.001.514-.488 1.326-.785.84-.325 2.111-.325 1.516 0 2.68.677a4.8 4.8 0 0 1 1.867 1.921q.677 1.218.677 2.95V163h-2.788v-7.794q0-1.732-.866-2.544-.865-.84-2.382-.839-1.731 0-2.787 1.136-1.029 1.137-1.028 3.302V163zm28.555.379q-2.137 0-3.789-.758-1.65-.758-2.598-2.219-.92-1.488-.92-3.6v-.676h2.896v.676q0 2.004 1.191 3.004 1.218 1.002 3.22 1.002 2.03 0 3.058-.839 1.029-.866 1.029-2.219 0-.894-.487-1.462t-1.38-.893a16 16 0 0 0-2.139-.649l-1.001-.244q-1.813-.433-3.166-1.055-1.326-.65-2.057-1.705t-.731-2.707q0-1.677.812-2.869.839-1.19 2.3-1.84 1.462-.65 3.438-.649 1.975 0 3.518.676 1.569.677 2.463 2.003.893 1.326.893 3.329v.974h-2.896v-.974q0-1.218-.514-1.976-.487-.757-1.381-1.11-.893-.351-2.083-.351-1.732 0-2.707.73-.947.704-.947 1.976 0 .865.406 1.434.433.542 1.245.893.812.352 2.03.623l1.001.243q1.84.406 3.248 1.056 1.407.622 2.219 1.705t.812 2.788q0 1.704-.866 2.977-.84 1.272-2.409 2.002-1.569.704-3.708.704m14.462-.379q-1.217 0-1.948-.731-.704-.73-.704-1.948v-8.309h-3.68v-2.354h3.68v-4.412h2.788v4.412h3.978v2.354h-3.978v7.822q0 .811.758.811h2.787V163zm10.827.379q-1.435 0-2.571-.487a4.25 4.25 0 0 1-1.787-1.435q-.65-.947-.649-2.3 0-1.38.649-2.273.678-.92 1.814-1.381 1.164-.46 2.625-.46h4.059v-.866q0-1.164-.703-1.867-.704-.704-2.165-.704-1.435 0-2.192.677-.758.676-1.002 1.759l-2.598-.839a5.6 5.6 0 0 1 1.029-1.949q.73-.893 1.921-1.434 1.19-.541 2.869-.541 2.598 0 4.086 1.326 1.49 1.326 1.489 3.762v5.494q0 .812.758.812h1.136V163h-2.084q-.946 0-1.542-.487t-.596-1.326v-.081h-.406a6.4 6.4 0 0 1-.649.947q-.433.541-1.272.947-.839.38-2.219.379m.406-2.301q1.677 0 2.706-.947 1.029-.973 1.028-2.652v-.271h-3.897q-1.109 0-1.786.488-.676.459-.676 1.38t.703 1.461 1.922.541m16.277 2.301q-1.922 0-3.492-.812a6.17 6.17 0 0 1-2.462-2.355q-.894-1.542-.894-3.707v-.352q0-2.165.894-3.681a6.17 6.17 0 0 1 2.462-2.354q1.57-.84 3.492-.839 1.921 0 3.274.703 1.353.704 2.165 1.868.84 1.164 1.083 2.571l-2.706.568a4.5 4.5 0 0 0-.569-1.624 3.14 3.14 0 0 0-1.218-1.163q-.784-.433-1.975-.433-1.164 0-2.111.541-.92.514-1.462 1.515-.541.975-.541 2.382v.244q0 1.407.541 2.408.541 1.002 1.462 1.516.947.514 2.111.514 1.759 0 2.679-.893.92-.92 1.164-2.328l2.706.623a7.1 7.1 0 0 1-1.164 2.544q-.812 1.164-2.165 1.867-1.353.677-3.274.677m9.142-.379v-18.945h2.787v10.799h.433l5.251-5.196h3.707l-6.739 6.468 6.956 6.874h-3.681l-5.494-5.548h-.433V163z"/><path fill="#00d8ff" d="M102.71 228.066a27 27 0 0 0-1.32-.416q.112-.457.204-.901c.999-4.849.346-8.756-1.884-10.043-2.14-1.233-5.637.053-9.17 3.127q-.51.445-1.021.937a24 24 0 0 0-.68-.627c-3.702-3.288-7.413-4.673-9.641-3.383-2.137 1.237-2.77 4.91-1.87 9.506q.13.666.302 1.358-.788.223-1.517.477c-4.34 1.514-7.113 3.886-7.113 6.346 0 2.541 2.976 5.089 7.497 6.635q.536.183 1.109.346-.186.748-.322 1.464c-.858 4.516-.188 8.102 1.943 9.332 2.201 1.269 5.896-.036 9.493-3.18q.427-.374.856-.789.555.536 1.108 1.011c3.484 2.999 6.926 4.21 9.055 2.977 2.199-1.273 2.914-5.125 1.986-9.812a23 23 0 0 0-.246-1.096q.39-.115.763-.238c4.7-1.558 7.758-4.075 7.758-6.65 0-2.469-2.862-4.857-7.29-6.381m-1.019 11.368q-.336.111-.689.216c-.519-1.643-1.219-3.39-2.076-5.195a41 41 0 0 0 1.995-5.118q.63.183 1.219.385c3.794 1.306 6.108 3.237 6.108 4.725 0 1.585-2.499 3.642-6.557 4.987m-1.684 3.337c.41 2.072.469 3.946.197 5.411-.244 1.316-.735 2.194-1.342 2.545-1.293.748-4.056-.224-7.036-2.788a25 25 0 0 1-1.03-.94c1.155-1.264 2.31-2.733 3.436-4.364 1.982-.176 3.855-.463 5.553-.856q.126.506.222.992m-17.03 7.827c-1.262.446-2.267.459-2.875.108-1.293-.746-1.83-3.625-1.097-7.487q.126-.664.299-1.362c1.68.372 3.538.639 5.525.8a43 43 0 0 0 3.52 4.348q-.392.38-.782.72c-1.59 1.39-3.184 2.377-4.59 2.873m-5.913-11.174c-2-.683-3.65-1.571-4.782-2.54-1.017-.871-1.53-1.736-1.53-2.437 0-1.493 2.225-3.397 5.938-4.692q.676-.236 1.41-.444a42 42 0 0 0 1.999 5.178 43 43 0 0 0-2.023 5.252q-.525-.15-1.012-.317m1.982-13.494c-.77-3.938-.259-6.909 1.03-7.654 1.37-.794 4.404.338 7.6 3.177q.307.272.616.567a42 42 0 0 0-3.493 4.323 43 43 0 0 0-5.471.85 26 26 0 0 1-.282-1.263m17.686 4.367a56 56 0 0 0-1.247-2.051c1.308.166 2.561.385 3.738.654a38 38 0 0 1-1.312 3.53 61 61 0 0 0-1.18-2.133m-7.212-7.025a38 38 0 0 1 2.412 2.913 51 51 0 0 0-4.846-.001 39 39 0 0 1 2.434-2.912m-7.259 7.037a52 52 0 0 0-1.157 2.12 39 39 0 0 1-1.303-3.548 39 39 0 0 1 3.717-.638q-.646 1.008-1.257 2.066m1.294 10.466a37 37 0 0 1-3.778-.607 39 39 0 0 1 1.329-3.62q.55 1.065 1.162 2.122.625 1.077 1.287 2.105m6.013 4.97a39 39 0 0 1-2.467-2.952 61 61 0 0 0 2.399.046q1.255 0 2.475-.055a37 37 0 0 1-2.407 2.961m8.36-9.26a37 37 0 0 1 1.377 3.607c-1.19.271-2.473.49-3.825.652q.64-1.012 1.259-2.086a56 56 0 0 0 1.189-2.173m-2.706 1.298a57 57 0 0 1-1.967 3.173 53 53 0 0 1-3.755.132 58 58 0 0 1-3.712-.117 50 50 0 0 1-2.004-3.179 49 49 0 0 1-1.75-3.303 50 50 0 0 1 1.745-3.305 49 49 0 0 1 1.988-3.165c1.219-.092 2.47-.14 3.733-.14 1.27 0 2.521.048 3.74.141a53 53 0 0 1 1.976 3.154 58 58 0 0 1 1.767 3.29 53 53 0 0 1-1.761 3.319m3.613-19.559c1.373.792 1.907 3.985 1.044 8.172q-.083.4-.184.815a42 42 0 0 0-5.482-.866c-1.127-1.604-2.294-3.063-3.466-4.325q.473-.456.943-.865c3.027-2.634 5.856-3.675 7.145-2.931M89.5 230.786a3.661 3.661 0 1 1 0 7.322 3.661 3.661 0 0 1 0-7.322"/><path fill="#539e43" fill-rule="evenodd" d="M140.536 254.445c-.55 0-1.064-.147-1.542-.404l-4.883-2.9c-.734-.404-.367-.551-.147-.624.992-.331 1.175-.404 2.203-.992.11-.073.257-.036.367.037l3.745 2.24c.147.073.331.073.441 0l14.649-8.482c.147-.073.221-.22.221-.403v-16.926c0-.184-.074-.331-.221-.404l-14.649-8.445c-.147-.073-.331-.073-.441 0l-14.649 8.445c-.147.073-.22.257-.22.404v16.926c0 .146.073.33.22.403l4.002 2.314c2.166 1.101 3.524-.184 3.524-1.469v-16.706c0-.22.184-.44.441-.44h1.873c.22 0 .44.183.44.44v16.706c0 2.9-1.579 4.589-4.332 4.589-.845 0-1.506 0-3.378-.918l-3.855-2.202a3.1 3.1 0 0 1-1.542-2.681v-16.926c0-1.101.587-2.129 1.542-2.68l14.649-8.481c.918-.514 2.166-.514 3.084 0l14.65 8.481a3.1 3.1 0 0 1 1.542 2.68v16.926a3.1 3.1 0 0 1-1.542 2.681l-14.65 8.481a3.8 3.8 0 0 1-1.542.33m4.516-11.639c-6.425 0-7.747-2.937-7.747-5.433 0-.221.184-.441.441-.441h1.909c.22 0 .404.147.404.367.294 1.946 1.138 2.901 5.03 2.901 3.084 0 4.406-.698 4.406-2.35 0-.955-.367-1.652-5.177-2.13-4.002-.404-6.499-1.285-6.499-4.479 0-2.974 2.497-4.736 6.683-4.736 4.699 0 7.012 1.615 7.306 5.14q0 .165-.11.33c-.074.074-.184.147-.294.147h-1.909a.43.43 0 0 1-.404-.33c-.441-2.02-1.579-2.68-4.589-2.68-3.378 0-3.782 1.174-3.782 2.056 0 1.064.477 1.395 5.03 1.982 4.516.588 6.645 1.432 6.645 4.59-.036 3.231-2.68 5.066-7.343 5.066" clip-rule="evenodd"/><g clip-path="url(#d)"><path fill="#0acf83" d="M184.72 255a6.835 6.835 0 0 0 6.833-6.833v-6.834h-6.833a6.836 6.836 0 0 0-6.833 6.834A6.835 6.835 0 0 0 184.72 255"/><path fill="#a259ff" d="M177.887 234.5a6.835 6.835 0 0 1 6.833-6.833h6.833v13.666h-6.833a6.835 6.835 0 0 1-6.833-6.833"/><path fill="#f24e1e" d="M177.887 220.833A6.835 6.835 0 0 1 184.72 214h6.833v13.667h-6.833a6.836 6.836 0 0 1-6.833-6.834"/><path fill="#ff7262" d="M191.553 214h6.834a6.835 6.835 0 0 1 6.833 6.833 6.836 6.836 0 0 1-6.833 6.834h-6.834z"/><path fill="#1abcfe" d="M205.22 234.5a6.835 6.835 0 0 1-6.833 6.833 6.836 6.836 0 0 1-6.834-6.833 6.836 6.836 0 0 1 6.834-6.833 6.835 6.835 0 0 1 6.833 6.833"/></g><g clip-path="url(#e)"><path fill="#de4c36" fill-rule="evenodd" d="m261.611 232.725-17.413-17.412a2.57 2.57 0 0 0-3.632 0l-3.616 3.616 4.587 4.587a3.049 3.049 0 0 1 3.863 3.888l4.42 4.421a3.054 3.054 0 0 1 3.158 5.047 3.057 3.057 0 0 1-4.988-3.324l-4.123-4.122v10.849a3.055 3.055 0 0 1 .808 4.9 3.055 3.055 0 1 1-3.322-4.989v-10.95a3.057 3.057 0 0 1-1.659-4.008l-4.521-4.523-11.94 11.94a2.57 2.57 0 0 0 0 3.633l17.414 17.413a2.57 2.57 0 0 0 3.632 0l17.332-17.332a2.57 2.57 0 0 0 0-3.634" clip-rule="evenodd"/></g></g><defs><clipPath id="a"><rect width="407" height="219" x="235" fill="#fff" rx="15"/></clipPath><clipPath id="d"><path fill="#fff" d="M171 214h41v41h-41z"/></clipPath><clipPath id="e"><path fill="#fff" d="M222.48 214.561h40.039v39.883H222.48z"/></clipPath><filter id="b" width="50" height="48" x="4" y="76" color-interpolation-filters="sRGB" filterUnits="userSpaceOnUse"><feFlood flood-opacity="0" result="BackgroundImageFix"/><feColorMatrix in="SourceAlpha" result="hardAlpha" values="0 0 0 0 0 0 0 0 0 0 0 0 0 0 0 0 0 0 127 0"/><feOffset dy="4"/><feGaussianBlur stdDeviation="2"/><feComposite in2="hardAlpha" operator="out"/><feColorMatrix values="0 0 0 0 0 0 0 0 0 0 0 0 0 0 0 0 0 0 0.25 0"/><feBlend in2="BackgroundImageFix" result="effect1_dropShadow_11_2"/><feBlend in="SourceGraphic" in2="effect1_dropShadow_11_2" result="shape"/></filter><filter id="c" width="293" height="212" x="35" y="109" color-interpolation-filters="sRGB" filterUnits="userSpaceOnUse"><feFlood flood-opacity="0" result="BackgroundImageFix"/><feColorMatrix in="SourceAlpha" result="hardAlpha" values="0 0 0 0 0 0 0 0 0 0 0 0 0 0 0 0 0 0 127 0"/><feOffset dy="4"/><feGaussianBlur stdDeviation="2"/><feComposite in2="hardAlpha" operator="out"/><feColorMatrix values="0 0 0 0 0 0 0 0 0 0 0 0 0 0 0 0 0 0 0.25 0"/><feBlend in2="BackgroundImageFix" result="effect1_dropShadow_11_2"/><feBlend in="SourceGraphic" in2="effect1_dropShadow_11_2" result="shape"/></filter></defs></svg>