<svg xmlns="http://www.w3.org/2000/svg" width="407" height="219" fill="none" viewBox="0 0 407 219"><g clip-path="url(#a)"><rect width="407" height="219" fill="#0d1117" rx="15"/><rect width="326.866" height="146.726" x="25.241" y="84.44" fill="#0d1117" stroke="#30363d" stroke-width=".363" rx="3.45"/><path fill="#161b22" d="M25.423 88.254a3.63 3.63 0 0 1 3.632-3.632h319.239a3.63 3.63 0 0 1 3.631 3.632v10.532H25.423z"/><rect width="30.871" height="11.259" x="320.147" y="67.371" fill="#1f6feb" stroke="#6c96f2" stroke-width=".363" rx="1.998"/><rect width="31.597" height="11.259" x="280.56" y="67.371" fill="#21262d" stroke="#475569" stroke-width=".363" rx="1.998"/><rect width="30.871" height="11.259" x="241.699" y="67.371" fill="#21262d" stroke="#475569" stroke-width=".363" rx="1.998"/><rect width="30.871" height="11.259" x="25.604" y="67.371" fill="#21262d" stroke="#475569" stroke-width=".363" rx="1.998"/><path fill="#4da1f4" d="M30.4 38.605q-1.583 0-2.44-.594-.858-.586-.857-1.648 0-.755.476-1.29.483-.534 1.333-.71a1.46 1.46 0 0 1-.542-.44 1.1 1.1 0 0 1-.22-.674q0-.44.242-.77.25-.337.755-.644a2.2 2.2 0 0 1-1.026-.865q-.388-.615-.388-1.429 0-.864.359-1.472.36-.615 1.04-.938.681-.323 1.649-.323.212 0 .425.023.219.015.417.05.198.03.345.074h2.755v.784l-1.48.183q.219.285.366.689a2.6 2.6 0 0 1 .146.894q0 1.2-.813 1.912-.813.704-2.235.703-.336 0-.688-.058-.36.197-.55.44a.9.9 0 0 0-.183.556q0 .235.14.374a.9.9 0 0 0 .417.205q.27.06.652.059h1.414q1.311 0 2.008.55.703.549.703 1.604 0 1.333-1.084 2.044-1.085.71-3.136.71m.036-.953q.997 0 1.649-.205.66-.198.982-.579.33-.373.33-.894 0-.483-.22-.732-.22-.242-.645-.323a5.2 5.2 0 0 0-1.04-.087h-1.393q-.541 0-.945.168a1.35 1.35 0 0 0-.623.498q-.212.33-.212.82 0 .653.55.99.549.344 1.567.344m.315-6.418q.873 0 1.312-.44t.44-1.282q0-.9-.447-1.348-.447-.454-1.32-.454-.834 0-1.289.469Q29 28.64 29 29.534q0 .82.455 1.26.454.44 1.296.44m6.395-4.264V35H35.93v-8.03zm-.593-3.004q.3 0 .513.197.22.192.22.601 0 .404-.22.601a.73.73 0 0 1-.513.198.74.74 0 0 1-.528-.198q-.205-.198-.205-.6 0-.41.205-.602a.75.75 0 0 1 .528-.197m5.391 10.184q.3 0 .615-.051.316-.051.513-.125v.945a2.6 2.6 0 0 1-.593.162q-.374.066-.733.066-.637 0-1.157-.22a1.8 1.8 0 0 1-.836-.762q-.307-.535-.307-1.48v-4.763h-1.143v-.593l1.15-.477.483-1.743h.733v1.86h2.352v.953H40.67v4.726q0 .755.345 1.128.351.375.93.374M45.54 23.6v3.406q0 .293-.014.594-.015.293-.052.542h.08q.25-.425.63-.71.39-.294.88-.44a3.5 3.5 0 0 1 1.04-.154q.968 0 1.613.307.651.308.974.953.33.645.33 1.67V35h-1.202v-5.15q0-1.004-.462-1.503-.453-.498-1.399-.498-.894 0-1.429.344-.527.337-.762.997-.227.66-.227 1.612V35h-1.216V23.6zm14.242 3.37V35h-.996l-.176-1.128h-.066a2.3 2.3 0 0 1-.645.703q-.396.285-.894.425a3.7 3.7 0 0 1-1.047.147q-.953 0-1.598-.308a2.07 2.07 0 0 1-.974-.953q-.323-.645-.323-1.656v-5.26h1.231v5.172q0 1.005.455 1.502.453.492 1.384.491.894 0 1.422-.337.534-.336.77-.989.233-.66.234-1.612V26.97zm3.413-3.37v2.85q0 .49-.03.952-.021.462-.036.718h.066q.33-.542.953-.916.623-.373 1.59-.373 1.509 0 2.403 1.047.9 1.04.901 3.1 0 1.355-.41 2.285-.411.93-1.158 1.407t-1.766.477q-.952 0-1.568-.352a2.75 2.75 0 0 1-.938-.872h-.095L62.858 35h-.88V23.6zm2.345 4.249q-.872 0-1.385.344-.513.337-.74 1.026-.22.68-.22 1.73v.065q0 1.517.506 2.323.505.798 1.839.798 1.12 0 1.678-.82.564-.82.564-2.345 0-1.553-.557-2.337-.55-.784-1.685-.784m26.122 1.692q0 1.81-.66 3.027a4.27 4.27 0 0 1-1.912 1.824Q87.844 35 86.064 35h-2.909V24.288h3.231q1.634 0 2.814.6a4.15 4.15 0 0 1 1.817 1.767q.645 1.164.645 2.886m-1.312.044q0-1.444-.483-2.38a3.04 3.04 0 0 0-1.407-1.393q-.923-.462-2.264-.462H84.4v8.58h1.516q2.213 0 3.32-1.091 1.113-1.092 1.113-3.254m4.35-2.615V35h-1.215v-8.03zm-.593-3.004q.3 0 .513.197.22.192.22.601 0 .404-.22.601a.73.73 0 0 1-.513.198.75.75 0 0 1-.527-.198q-.205-.198-.205-.6 0-.41.205-.602a.75.75 0 0 1 .527-.197m4.014-.367v3.407q0 .293-.014.594-.015.293-.052.542h.08q.25-.425.63-.71.39-.294.88-.44a3.5 3.5 0 0 1 1.041-.154q.967 0 1.611.307.653.308.975.953.33.645.33 1.67V35H102.4v-5.15q0-1.004-.462-1.503-.453-.498-1.399-.498-.894 0-1.429.344-.526.337-.762.997-.227.66-.227 1.612V35h-1.216V23.6zm6.344 3.37h1.304l1.773 4.66q.154.411.286.792.132.373.234.718t.162.667h.051q.102-.366.293-.96.19-.6.41-1.224l1.678-4.652h1.312l-3.495 9.21a6.1 6.1 0 0 1-.652 1.29 2.6 2.6 0 0 1-.894.842q-.528.3-1.275.3-.345 0-.608-.044a4 4 0 0 1-.455-.088v-.974a4.3 4.3 0 0 0 .872.095q.454 0 .784-.176a1.6 1.6 0 0 0 .579-.498q.241-.33.418-.784l.439-1.128zm11.267 8.178q-1.524 0-2.418-1.04-.886-1.041-.886-3.093 0-2.073.908-3.128.909-1.063 2.418-1.063.637 0 1.114.169.476.168.82.454.345.278.579.637h.088a12 12 0 0 1-.058-.622 9 9 0 0 1-.03-.645v-3.217h1.217V35h-.982l-.183-1.143h-.052q-.226.36-.579.652a2.7 2.7 0 0 1-.827.469 3.4 3.4 0 0 1-1.129.169m.191-1.012q1.288 0 1.824-.732.535-.733.535-2.176v-.22q0-1.531-.513-2.352-.505-.82-1.846-.82-1.122 0-1.678.864-.557.857-.557 2.345 0 1.479.549 2.286.557.805 1.686.805m9.413-7.312q.242 0 .506.03.264.021.469.065l-.154 1.129a3.783 3.783 0 0 0-.894-.11q-.484 0-.916.198a2.2 2.2 0 0 0-.747.556 2.6 2.6 0 0 0-.506.872 3.3 3.3 0 0 0-.183 1.129V35h-1.224v-8.03h1.012l.131 1.48h.052q.249-.447.601-.814.351-.374.813-.593.468-.22 1.04-.22m9.04 4.147q0 .99-.256 1.766a3.6 3.6 0 0 1-.74 1.312q-.484.534-1.173.82-.681.279-1.545.279a3.85 3.85 0 0 1-1.481-.279 3.3 3.3 0 0 1-1.157-.82 3.8 3.8 0 0 1-.755-1.312q-.264-.776-.264-1.766 0-1.318.447-2.242.447-.93 1.275-1.414.835-.49 1.986-.49 1.098 0 1.919.49.828.49 1.283 1.421.46.923.461 2.235m-6.11 0q0 .967.256 1.678.257.71.791 1.1.535.387 1.378.387.835 0 1.37-.388.542-.388.799-1.099.256-.71.256-1.678 0-.96-.256-1.656-.257-.703-.792-1.084-.534-.381-1.385-.381-1.252 0-1.839.828-.578.828-.578 2.293m10.08 7.635q-1.582 0-2.44-.594-.857-.586-.857-1.648 0-.755.476-1.29.484-.534 1.334-.71a1.5 1.5 0 0 1-.543-.44 1.1 1.1 0 0 1-.219-.674q0-.44.241-.77.25-.337.755-.644a2.2 2.2 0 0 1-1.026-.865q-.388-.615-.388-1.429 0-.864.359-1.472.359-.615 1.04-.938.682-.323 1.649-.323.212 0 .425.023.22.015.418.05.197.03.344.074h2.755v.784l-1.48.183q.22.285.366.689.147.403.147.894 0 1.2-.814 1.912-.813.704-2.234.703a4 4 0 0 1-.689-.058 1.8 1.8 0 0 0-.55.44.9.9 0 0 0-.183.556q0 .235.14.374a.9.9 0 0 0 .417.205q.271.06.652.059h1.414q1.312 0 2.008.55.703.549.703 1.604 0 1.333-1.084 2.044-1.084.71-3.136.71m.037-.953q.996 0 1.648-.205.66-.198.982-.579.33-.373.33-.894 0-.483-.22-.732-.22-.242-.645-.323a5.2 5.2 0 0 0-1.04-.087h-1.392q-.543 0-.946.168a1.35 1.35 0 0 0-.622.498q-.213.33-.213.82 0 .653.55.99.55.344 1.568.344m.315-6.418q.871 0 1.311-.44t.44-1.282q0-.9-.447-1.348-.447-.454-1.319-.454-.836 0-1.289.469-.447.461-.447 1.355 0 .82.454 1.26t1.297.44m8.27-4.41q1.026 0 1.759.453.732.455 1.121 1.275.388.814.388 1.905v.755h-5.546q.022 1.414.703 2.154t1.92.74q.762 0 1.348-.14.586-.138 1.216-.41v1.07q-.607.272-1.209.396a7 7 0 0 1-1.407.125q-1.156 0-2.022-.47a3.28 3.28 0 0 1-1.333-1.392q-.477-.915-.477-2.241 0-1.298.433-2.243.44-.952 1.231-1.465.798-.513 1.875-.513m-.014.996q-.975 0-1.554.637t-.688 1.78h4.249q-.007-.717-.227-1.26a1.77 1.77 0 0 0-.652-.85q-.44-.307-1.128-.307m8.776-.997q1.428 0 2.161.703.733.697.733 2.243V35h-1.202v-5.15q0-1.004-.461-1.503-.455-.498-1.4-.498-1.334 0-1.875.755-.543.755-.543 2.19V35h-1.216v-8.03h.982l.183 1.157h.066q.256-.425.652-.71a2.9 2.9 0 0 1 .887-.44 3.4 3.4 0 0 1 1.033-.154M169.172 35l-3.598-9.481h-.058q.029.3.051.733a42 42 0 0 1 .051 1.978V35h-1.157V24.288h1.846l3.392 8.91h.052l3.443-8.91h1.832V35h-1.231v-6.858q0-.476.015-.953a50 50 0 0 1 .08-1.655h-.058L170.19 35zm15.151-4.03q0 .99-.257 1.766a3.6 3.6 0 0 1-.74 1.312q-.483.534-1.172.82-.682.279-1.546.279a3.8 3.8 0 0 1-1.48-.279 3.3 3.3 0 0 1-1.158-.82 3.8 3.8 0 0 1-.755-1.312q-.263-.776-.263-1.766 0-1.318.447-2.242.447-.93 1.274-1.414.835-.49 1.986-.49 1.1 0 1.92.49.828.49 1.282 1.421.462.923.462 2.235m-6.111 0q0 .967.256 1.678.256.71.792 1.1.534.387 1.377.387.836 0 1.37-.388.543-.388.799-1.099.256-.71.256-1.678 0-.96-.256-1.656-.257-.703-.791-1.084-.536-.381-1.385-.381-1.254 0-1.839.828-.579.828-.579 2.293m11.641-4.147q1.428 0 2.161.703.733.697.733 2.243V35h-1.202v-5.15q0-1.004-.461-1.503-.455-.498-1.4-.498-1.333 0-1.875.755-.543.755-.543 2.19V35h-1.216v-8.03h.982l.183 1.157h.066q.256-.425.652-.71a2.9 2.9 0 0 1 .887-.44 3.4 3.4 0 0 1 1.033-.154m11.949 4.147q0 .99-.257 1.766a3.6 3.6 0 0 1-.74 1.312q-.483.534-1.172.82-.681.279-1.546.279a3.8 3.8 0 0 1-1.48-.279 3.3 3.3 0 0 1-1.158-.82 3.8 3.8 0 0 1-.754-1.312q-.264-.776-.264-1.766 0-1.318.447-2.242.447-.93 1.275-1.414.834-.49 1.985-.49 1.1 0 1.92.49.828.49 1.282 1.421.462.923.462 2.235m-6.111 0q0 .967.256 1.678.256.71.792 1.1.534.387 1.377.387.836 0 1.37-.388.543-.388.799-1.099.256-.71.256-1.678 0-.96-.256-1.656-.257-.703-.791-1.084-.536-.381-1.385-.381-1.253 0-1.839.828-.579.828-.579 2.293m9.751-.08-2.777-3.92h1.392l2.117 3.092 2.111-3.092h1.377l-2.777 3.92 2.931 4.11h-1.392l-2.25-3.275L203.91 35h-1.377zm6.783-3.92V35h-1.216v-8.03zm-.594-3.004q.302 0 .513.197.22.192.22.601 0 .404-.22.601a.72.72 0 0 1-.513.198.74.74 0 0 1-.527-.198q-.205-.198-.205-.6 0-.41.205-.602a.74.74 0 0 1 .527-.197m5.655 11.18q-1.524 0-2.417-1.04-.888-1.04-.887-3.092 0-2.073.908-3.128.909-1.063 2.418-1.063.638 0 1.114.169.477.168.821.454.344.278.579.637h.087a12 12 0 0 1-.058-.622 9 9 0 0 1-.029-.645v-3.217h1.216V35h-.982l-.183-1.143h-.051q-.228.36-.579.652a2.7 2.7 0 0 1-.828.469 3.4 3.4 0 0 1-1.129.169m.191-1.01q1.29 0 1.824-.733.535-.733.535-2.176v-.22q0-1.531-.513-2.352-.505-.82-1.846-.82-1.121 0-1.678.864-.557.857-.557 2.345 0 1.479.55 2.286.557.805 1.685.805m8.857-7.313q1.026 0 1.758.454.733.455 1.121 1.275.389.814.389 1.905v.755h-5.547q.022 1.414.703 2.154.683.74 1.92.74.762 0 1.348-.14.586-.138 1.216-.41v1.07q-.608.272-1.208.396a7 7 0 0 1-1.407.125q-1.158 0-2.022-.47a3.3 3.3 0 0 1-1.334-1.392q-.476-.915-.476-2.241 0-1.298.432-2.243.44-.952 1.231-1.465.799-.513 1.876-.513m-.015.997q-.975 0-1.553.637-.58.637-.689 1.78h4.25q-.007-.717-.228-1.26a1.77 1.77 0 0 0-.652-.85q-.44-.307-1.128-.307"/><path fill="#94a3b8" d="M78.374 24.288 74.388 35h-1.202l3.993-10.712z"/><path fill="#b3b3b3" d="M29.305 43.594q1.12 0 1.635.44.519.435.519 1.25 0 .37-.123.701-.118.33-.388.583-.27.249-.709.396-.435.142-1.069.142h-.705v2.277h-.673v-5.79zm-.064.574h-.776v2.36h.63q.555 0 .922-.119a1.04 1.04 0 0 0 .559-.384q.186-.27.186-.713 0-.578-.368-.86-.369-.285-1.153-.284m6.712.875v4.34h-.539l-.095-.61h-.036q-.135.225-.348.38-.215.155-.483.23a2 2 0 0 1-.566.08q-.515 0-.864-.167a1.12 1.12 0 0 1-.526-.515q-.175-.348-.175-.895v-2.843h.666v2.796q0 .542.245.812.245.264.749.265.483 0 .768-.182.289-.183.416-.535.126-.357.126-.871v-2.285zm3.159-.08q.13 0 .273.017.143.012.254.035l-.084.61a2.04 2.04 0 0 0-.483-.06q-.261 0-.495.108a1.2 1.2 0 0 0-.404.3q-.174.195-.273.472a1.8 1.8 0 0 0-.099.61v2.328h-.661v-4.34h.546l.072.8h.027q.135-.242.325-.44.19-.201.44-.32.253-.12.562-.12m1.8.08v4.34h-.656v-4.34zm-.32-1.624q.162 0 .277.107.12.103.12.325 0 .217-.12.325a.4.4 0 0 1-.277.107.4.4 0 0 1-.285-.107q-.11-.108-.11-.325 0-.222.11-.325a.4.4 0 0 1 .285-.107m2.914 5.505a2 2 0 0 0 .61-.095v.51a1.4 1.4 0 0 1-.321.088 2.3 2.3 0 0 1-.396.035q-.345 0-.626-.119a.97.97 0 0 1-.451-.411q-.166-.29-.166-.8v-2.574h-.618v-.321l.622-.257.26-.943h.397v1.006h1.271v.515h-1.271v2.554q0 .408.186.61a.66.66 0 0 0 .503.202m.601-3.881h.705l.958 2.519q.083.221.155.427.071.202.126.388t.087.36h.028q.056-.197.159-.518.102-.325.221-.662l.907-2.514h.709l-1.889 4.978q-.15.4-.352.697-.198.297-.483.455-.285.162-.69.162-.185 0-.328-.023a2 2 0 0 1-.246-.048v-.527a2.3 2.3 0 0 0 .472.052.867.867 0 0 0 .736-.364q.13-.179.226-.424l.238-.61zm7.107 0v4.34h-.658v-4.34zm-.321-1.624q.162 0 .277.107.12.103.119.325 0 .217-.119.325a.4.4 0 0 1-.277.107.4.4 0 0 1-.285-.107q-.111-.108-.111-.325 0-.222.11-.325a.4.4 0 0 1 .286-.107m3.567 1.545q.772 0 1.168.38.396.376.396 1.212v2.827h-.65V46.6q0-.542-.249-.812-.245-.27-.756-.269-.72 0-1.014.408-.293.408-.293 1.184v2.273h-.657v-4.34h.53l.1.626h.035q.139-.23.352-.384.214-.159.48-.238.265-.083.558-.083m7.194-.86q-.48 0-.864.167-.38.162-.65.475a2.2 2.2 0 0 0-.407.748 3.2 3.2 0 0 0-.142.99q0 .729.225 1.268.23.534.681.827.456.294 1.137.293.387 0 .728-.063.345-.067.67-.166v.586q-.316.118-.666.174-.348.06-.827.06-.883 0-1.477-.365a2.28 2.28 0 0 1-.887-1.038q-.293-.668-.293-1.58 0-.657.182-1.2.186-.546.538-.942.356-.396.872-.61a3.05 3.05 0 0 1 1.188-.218q.44 0 .847.088.408.086.736.249l-.269.57a4 4 0 0 0-.61-.218 2.6 2.6 0 0 0-.712-.095m6.073 3.101q0 .535-.138.954-.14.42-.4.71-.261.288-.634.443-.368.15-.835.15-.435 0-.8-.15a1.8 1.8 0 0 1-.626-.444 2.05 2.05 0 0 1-.408-.709 3 3 0 0 1-.142-.954q0-.712.241-1.212.241-.503.69-.764.45-.265 1.072-.265.594 0 1.038.265.448.265.693.768.25.5.25 1.208m-3.302 0q0 .522.138.907.139.384.428.594.288.21.745.21.45 0 .74-.21.293-.21.432-.594.138-.384.138-.907 0-.519-.138-.895a1.2 1.2 0 0 0-.428-.586q-.29-.206-.748-.206-.678 0-.994.448-.313.447-.313 1.24m5.78 2.257q-.823 0-1.306-.562-.48-.562-.48-1.671 0-1.12.492-1.691.491-.574 1.306-.574.345 0 .602.09.258.091.444.246.186.15.313.345h.047a7 7 0 0 1-.047-.685V43.22h.657v6.162h-.53l-.1-.618h-.027a1.5 1.5 0 0 1-.76.606q-.258.09-.61.091m.103-.546q.698 0 .986-.396.29-.396.29-1.176v-.12q0-.826-.278-1.27-.272-.444-.998-.444-.605 0-.906.468-.301.462-.301 1.267 0 .8.297 1.235.3.436.91.436m4.787-3.952q.555 0 .95.245.397.246.607.69.21.439.21 1.029v.408h-2.998q.011.764.38 1.164.368.4 1.037.4.412 0 .73-.075.316-.075.656-.222v.578q-.328.148-.653.214a3.7 3.7 0 0 1-.76.067q-.626 0-1.093-.253a1.77 1.77 0 0 1-.721-.753q-.257-.495-.257-1.211 0-.701.233-1.212.238-.515.666-.792a1.83 1.83 0 0 1 1.013-.277m-.008.538q-.525 0-.84.345-.312.344-.371.962h2.296a1.9 1.9 0 0 0-.122-.681.96.96 0 0 0-.353-.46q-.237-.166-.61-.166"/></g><rect width="406" height="218" x=".5" y=".5" stroke="#475569" rx="14.5"/><defs><clipPath id="a"><rect width="407" height="219" fill="#fff" rx="15"/></clipPath></defs></svg>